<mxfile host="app.diagrams.net" agent="Mozilla/5.0 (Windows NT 10.0; Win64; x64) AppleWebKit/537.36 (KHTML, like Gecko) Chrome/127.0.0.0 Safari/537.36 OPR/113.0.0.0" version="24.7.16">
  <diagram name="Page-1" id="sA52p2TH3s7QRao9lMFh">
    <mxGraphModel dx="1262" dy="686" grid="1" gridSize="10" guides="1" tooltips="1" connect="1" arrows="1" fold="1" page="1" pageScale="1" pageWidth="850" pageHeight="1100" math="0" shadow="0">
      <root>
        <mxCell id="0" />
        <mxCell id="1" parent="0" />
        <mxCell id="j6VwmGJZ4XkVM8lMlkIX-1" value="Employee" style="swimlane;fontStyle=0;childLayout=stackLayout;horizontal=1;startSize=30;horizontalStack=0;resizeParent=1;resizeParentMax=0;resizeLast=0;collapsible=1;marginBottom=0;whiteSpace=wrap;html=1;" vertex="1" parent="1">
          <mxGeometry x="80" y="102" width="200" height="150" as="geometry" />
        </mxCell>
        <mxCell id="j6VwmGJZ4XkVM8lMlkIX-2" value="emp_id" style="text;strokeColor=none;fillColor=none;align=left;verticalAlign=middle;spacingLeft=4;spacingRight=4;overflow=hidden;points=[[0,0.5],[1,0.5]];portConstraint=eastwest;rotatable=0;whiteSpace=wrap;html=1;" vertex="1" parent="j6VwmGJZ4XkVM8lMlkIX-1">
          <mxGeometry y="30" width="200" height="30" as="geometry" />
        </mxCell>
        <mxCell id="j6VwmGJZ4XkVM8lMlkIX-3" value="emp_name" style="text;strokeColor=none;fillColor=none;align=left;verticalAlign=middle;spacingLeft=4;spacingRight=4;overflow=hidden;points=[[0,0.5],[1,0.5]];portConstraint=eastwest;rotatable=0;whiteSpace=wrap;html=1;" vertex="1" parent="j6VwmGJZ4XkVM8lMlkIX-1">
          <mxGeometry y="60" width="200" height="30" as="geometry" />
        </mxCell>
        <mxCell id="j6VwmGJZ4XkVM8lMlkIX-4" value="salary" style="text;strokeColor=none;fillColor=none;align=left;verticalAlign=middle;spacingLeft=4;spacingRight=4;overflow=hidden;points=[[0,0.5],[1,0.5]];portConstraint=eastwest;rotatable=0;whiteSpace=wrap;html=1;" vertex="1" parent="j6VwmGJZ4XkVM8lMlkIX-1">
          <mxGeometry y="90" width="200" height="30" as="geometry" />
        </mxCell>
        <mxCell id="j6VwmGJZ4XkVM8lMlkIX-23" value="role" style="text;strokeColor=none;fillColor=none;align=left;verticalAlign=middle;spacingLeft=4;spacingRight=4;overflow=hidden;points=[[0,0.5],[1,0.5]];portConstraint=eastwest;rotatable=0;whiteSpace=wrap;html=1;" vertex="1" parent="j6VwmGJZ4XkVM8lMlkIX-1">
          <mxGeometry y="120" width="200" height="30" as="geometry" />
        </mxCell>
        <mxCell id="j6VwmGJZ4XkVM8lMlkIX-5" value="project" style="swimlane;fontStyle=0;childLayout=stackLayout;horizontal=1;startSize=30;horizontalStack=0;resizeParent=1;resizeParentMax=0;resizeLast=0;collapsible=1;marginBottom=0;whiteSpace=wrap;html=1;" vertex="1" parent="1">
          <mxGeometry x="80" y="505" width="200" height="150" as="geometry" />
        </mxCell>
        <mxCell id="j6VwmGJZ4XkVM8lMlkIX-6" value="project_num" style="text;strokeColor=none;fillColor=none;align=left;verticalAlign=middle;spacingLeft=4;spacingRight=4;overflow=hidden;points=[[0,0.5],[1,0.5]];portConstraint=eastwest;rotatable=0;whiteSpace=wrap;html=1;" vertex="1" parent="j6VwmGJZ4XkVM8lMlkIX-5">
          <mxGeometry y="30" width="200" height="30" as="geometry" />
        </mxCell>
        <mxCell id="j6VwmGJZ4XkVM8lMlkIX-7" value="start_date" style="text;strokeColor=none;fillColor=none;align=left;verticalAlign=middle;spacingLeft=4;spacingRight=4;overflow=hidden;points=[[0,0.5],[1,0.5]];portConstraint=eastwest;rotatable=0;whiteSpace=wrap;html=1;" vertex="1" parent="j6VwmGJZ4XkVM8lMlkIX-5">
          <mxGeometry y="60" width="200" height="30" as="geometry" />
        </mxCell>
        <mxCell id="j6VwmGJZ4XkVM8lMlkIX-8" value="end_date" style="text;strokeColor=none;fillColor=none;align=left;verticalAlign=middle;spacingLeft=4;spacingRight=4;overflow=hidden;points=[[0,0.5],[1,0.5]];portConstraint=eastwest;rotatable=0;whiteSpace=wrap;html=1;" vertex="1" parent="j6VwmGJZ4XkVM8lMlkIX-5">
          <mxGeometry y="90" width="200" height="30" as="geometry" />
        </mxCell>
        <mxCell id="j6VwmGJZ4XkVM8lMlkIX-26" value="project_lead" style="text;strokeColor=none;fillColor=none;align=left;verticalAlign=middle;spacingLeft=4;spacingRight=4;overflow=hidden;points=[[0,0.5],[1,0.5]];portConstraint=eastwest;rotatable=0;whiteSpace=wrap;html=1;" vertex="1" parent="j6VwmGJZ4XkVM8lMlkIX-5">
          <mxGeometry y="120" width="200" height="30" as="geometry" />
        </mxCell>
        <mxCell id="j6VwmGJZ4XkVM8lMlkIX-9" value="department" style="swimlane;fontStyle=0;childLayout=stackLayout;horizontal=1;startSize=30;horizontalStack=0;resizeParent=1;resizeParentMax=0;resizeLast=0;collapsible=1;marginBottom=0;whiteSpace=wrap;html=1;" vertex="1" parent="1">
          <mxGeometry x="600" y="102" width="200" height="120" as="geometry" />
        </mxCell>
        <mxCell id="j6VwmGJZ4XkVM8lMlkIX-10" value="dept_name" style="text;strokeColor=none;fillColor=none;align=left;verticalAlign=middle;spacingLeft=4;spacingRight=4;overflow=hidden;points=[[0,0.5],[1,0.5]];portConstraint=eastwest;rotatable=0;whiteSpace=wrap;html=1;" vertex="1" parent="j6VwmGJZ4XkVM8lMlkIX-9">
          <mxGeometry y="30" width="200" height="30" as="geometry" />
        </mxCell>
        <mxCell id="j6VwmGJZ4XkVM8lMlkIX-11" value="no_of_emp" style="text;strokeColor=none;fillColor=none;align=left;verticalAlign=middle;spacingLeft=4;spacingRight=4;overflow=hidden;points=[[0,0.5],[1,0.5]];portConstraint=eastwest;rotatable=0;whiteSpace=wrap;html=1;" vertex="1" parent="j6VwmGJZ4XkVM8lMlkIX-9">
          <mxGeometry y="60" width="200" height="30" as="geometry" />
        </mxCell>
        <mxCell id="j6VwmGJZ4XkVM8lMlkIX-68" value="hq_location" style="text;strokeColor=none;fillColor=none;align=left;verticalAlign=middle;spacingLeft=4;spacingRight=4;overflow=hidden;points=[[0,0.5],[1,0.5]];portConstraint=eastwest;rotatable=0;whiteSpace=wrap;html=1;" vertex="1" parent="j6VwmGJZ4XkVM8lMlkIX-9">
          <mxGeometry y="90" width="200" height="30" as="geometry" />
        </mxCell>
        <mxCell id="j6VwmGJZ4XkVM8lMlkIX-17" value="tasks" style="swimlane;fontStyle=0;childLayout=stackLayout;horizontal=1;startSize=30;horizontalStack=0;resizeParent=1;resizeParentMax=0;resizeLast=0;collapsible=1;marginBottom=0;whiteSpace=wrap;html=1;" vertex="1" parent="1">
          <mxGeometry x="80" y="855" width="200" height="180" as="geometry" />
        </mxCell>
        <mxCell id="j6VwmGJZ4XkVM8lMlkIX-18" value="task_name" style="text;strokeColor=none;fillColor=none;align=left;verticalAlign=middle;spacingLeft=4;spacingRight=4;overflow=hidden;points=[[0,0.5],[1,0.5]];portConstraint=eastwest;rotatable=0;whiteSpace=wrap;html=1;" vertex="1" parent="j6VwmGJZ4XkVM8lMlkIX-17">
          <mxGeometry y="30" width="200" height="30" as="geometry" />
        </mxCell>
        <mxCell id="j6VwmGJZ4XkVM8lMlkIX-19" value="start_date" style="text;strokeColor=none;fillColor=none;align=left;verticalAlign=middle;spacingLeft=4;spacingRight=4;overflow=hidden;points=[[0,0.5],[1,0.5]];portConstraint=eastwest;rotatable=0;whiteSpace=wrap;html=1;" vertex="1" parent="j6VwmGJZ4XkVM8lMlkIX-17">
          <mxGeometry y="60" width="200" height="30" as="geometry" />
        </mxCell>
        <mxCell id="j6VwmGJZ4XkVM8lMlkIX-20" value="end_date" style="text;strokeColor=none;fillColor=none;align=left;verticalAlign=middle;spacingLeft=4;spacingRight=4;overflow=hidden;points=[[0,0.5],[1,0.5]];portConstraint=eastwest;rotatable=0;whiteSpace=wrap;html=1;" vertex="1" parent="j6VwmGJZ4XkVM8lMlkIX-17">
          <mxGeometry y="90" width="200" height="30" as="geometry" />
        </mxCell>
        <mxCell id="j6VwmGJZ4XkVM8lMlkIX-27" value="completion_date" style="text;strokeColor=none;fillColor=none;align=left;verticalAlign=middle;spacingLeft=4;spacingRight=4;overflow=hidden;points=[[0,0.5],[1,0.5]];portConstraint=eastwest;rotatable=0;whiteSpace=wrap;html=1;" vertex="1" parent="j6VwmGJZ4XkVM8lMlkIX-17">
          <mxGeometry y="120" width="200" height="30" as="geometry" />
        </mxCell>
        <mxCell id="j6VwmGJZ4XkVM8lMlkIX-28" value="task_priority" style="text;strokeColor=none;fillColor=none;align=left;verticalAlign=middle;spacingLeft=4;spacingRight=4;overflow=hidden;points=[[0,0.5],[1,0.5]];portConstraint=eastwest;rotatable=0;whiteSpace=wrap;html=1;" vertex="1" parent="j6VwmGJZ4XkVM8lMlkIX-17">
          <mxGeometry y="150" width="200" height="30" as="geometry" />
        </mxCell>
        <mxCell id="j6VwmGJZ4XkVM8lMlkIX-33" style="edgeStyle=orthogonalEdgeStyle;rounded=0;orthogonalLoop=1;jettySize=auto;html=1;exitX=0.5;exitY=1;exitDx=0;exitDy=0;entryX=0.5;entryY=0;entryDx=0;entryDy=0;endArrow=none;endFill=0;" edge="1" parent="1" source="j6VwmGJZ4XkVM8lMlkIX-30" target="j6VwmGJZ4XkVM8lMlkIX-17">
          <mxGeometry relative="1" as="geometry" />
        </mxCell>
        <mxCell id="j6VwmGJZ4XkVM8lMlkIX-35" style="edgeStyle=orthogonalEdgeStyle;rounded=0;orthogonalLoop=1;jettySize=auto;html=1;exitX=0.5;exitY=0;exitDx=0;exitDy=0;" edge="1" parent="1" source="j6VwmGJZ4XkVM8lMlkIX-30">
          <mxGeometry relative="1" as="geometry">
            <mxPoint x="180" y="670" as="targetPoint" />
          </mxGeometry>
        </mxCell>
        <mxCell id="j6VwmGJZ4XkVM8lMlkIX-30" value="" style="rhombus;whiteSpace=wrap;html=1;" vertex="1" parent="1">
          <mxGeometry x="140" y="725" width="80" height="80" as="geometry" />
        </mxCell>
        <mxCell id="j6VwmGJZ4XkVM8lMlkIX-40" style="edgeStyle=orthogonalEdgeStyle;rounded=0;orthogonalLoop=1;jettySize=auto;html=1;exitX=0.5;exitY=1;exitDx=0;exitDy=0;entryX=0.5;entryY=0;entryDx=0;entryDy=0;endArrow=none;endFill=0;" edge="1" parent="1" source="j6VwmGJZ4XkVM8lMlkIX-42" target="j6VwmGJZ4XkVM8lMlkIX-5">
          <mxGeometry relative="1" as="geometry">
            <mxPoint x="182" y="482" as="targetPoint" />
            <Array as="points">
              <mxPoint x="180" y="462" />
            </Array>
          </mxGeometry>
        </mxCell>
        <mxCell id="j6VwmGJZ4XkVM8lMlkIX-41" style="edgeStyle=orthogonalEdgeStyle;rounded=0;orthogonalLoop=1;jettySize=auto;html=1;exitX=0.5;exitY=0;exitDx=0;exitDy=0;endArrow=none;endFill=0;entryX=0.498;entryY=1.083;entryDx=0;entryDy=0;entryPerimeter=0;" edge="1" parent="1" source="j6VwmGJZ4XkVM8lMlkIX-42" target="j6VwmGJZ4XkVM8lMlkIX-23">
          <mxGeometry relative="1" as="geometry">
            <mxPoint x="182" y="342" as="targetPoint" />
            <Array as="points">
              <mxPoint x="182" y="315" />
            </Array>
          </mxGeometry>
        </mxCell>
        <mxCell id="j6VwmGJZ4XkVM8lMlkIX-42" value="working_on" style="rhombus;whiteSpace=wrap;html=1;" vertex="1" parent="1">
          <mxGeometry x="142" y="382" width="80" height="80" as="geometry" />
        </mxCell>
        <mxCell id="j6VwmGJZ4XkVM8lMlkIX-50" style="edgeStyle=orthogonalEdgeStyle;rounded=0;orthogonalLoop=1;jettySize=auto;html=1;exitX=1;exitY=0.5;exitDx=0;exitDy=0;entryX=0;entryY=-0.333;entryDx=0;entryDy=0;entryPerimeter=0;endArrow=none;endFill=0;" edge="1" parent="1" source="j6VwmGJZ4XkVM8lMlkIX-47" target="j6VwmGJZ4XkVM8lMlkIX-11">
          <mxGeometry relative="1" as="geometry">
            <mxPoint x="590" y="152" as="targetPoint" />
          </mxGeometry>
        </mxCell>
        <mxCell id="j6VwmGJZ4XkVM8lMlkIX-60" style="edgeStyle=orthogonalEdgeStyle;rounded=0;orthogonalLoop=1;jettySize=auto;html=1;exitX=0.5;exitY=0;exitDx=0;exitDy=0;entryX=0.5;entryY=1;entryDx=0;entryDy=0;dashed=1;endArrow=none;endFill=0;" edge="1" parent="1" source="j6VwmGJZ4XkVM8lMlkIX-47" target="j6VwmGJZ4XkVM8lMlkIX-55">
          <mxGeometry relative="1" as="geometry" />
        </mxCell>
        <mxCell id="j6VwmGJZ4XkVM8lMlkIX-47" value="works_in" style="rhombus;whiteSpace=wrap;html=1;" vertex="1" parent="1">
          <mxGeometry x="385" y="112" width="80" height="80" as="geometry" />
        </mxCell>
        <mxCell id="j6VwmGJZ4XkVM8lMlkIX-48" style="edgeStyle=orthogonalEdgeStyle;rounded=0;orthogonalLoop=1;jettySize=auto;html=1;exitX=0;exitY=0.5;exitDx=0;exitDy=0;endArrow=none;endFill=0;" edge="1" parent="1" source="j6VwmGJZ4XkVM8lMlkIX-47">
          <mxGeometry relative="1" as="geometry">
            <mxPoint x="280" y="152" as="targetPoint" />
            <Array as="points">
              <mxPoint x="310" y="152" />
              <mxPoint x="310" y="152" />
            </Array>
          </mxGeometry>
        </mxCell>
        <mxCell id="j6VwmGJZ4XkVM8lMlkIX-55" value="city" style="rounded=0;whiteSpace=wrap;html=1;" vertex="1" parent="1">
          <mxGeometry x="365" y="46" width="120" height="20" as="geometry" />
        </mxCell>
        <mxCell id="j6VwmGJZ4XkVM8lMlkIX-58" style="edgeStyle=orthogonalEdgeStyle;rounded=0;orthogonalLoop=1;jettySize=auto;html=1;exitX=0.5;exitY=1;exitDx=0;exitDy=0;entryX=1;entryY=0.5;entryDx=0;entryDy=0;endArrow=none;endFill=0;" edge="1" parent="1" source="j6VwmGJZ4XkVM8lMlkIX-56" target="j6VwmGJZ4XkVM8lMlkIX-6">
          <mxGeometry relative="1" as="geometry" />
        </mxCell>
        <mxCell id="j6VwmGJZ4XkVM8lMlkIX-59" style="edgeStyle=orthogonalEdgeStyle;rounded=0;orthogonalLoop=1;jettySize=auto;html=1;exitX=0.5;exitY=0;exitDx=0;exitDy=0;endArrow=none;endFill=0;" edge="1" parent="1" source="j6VwmGJZ4XkVM8lMlkIX-56">
          <mxGeometry relative="1" as="geometry">
            <mxPoint x="620" y="230" as="targetPoint" />
          </mxGeometry>
        </mxCell>
        <mxCell id="j6VwmGJZ4XkVM8lMlkIX-56" value="" style="rhombus;whiteSpace=wrap;html=1;rotation=30;" vertex="1" parent="1">
          <mxGeometry x="405" y="362" width="80" height="80" as="geometry" />
        </mxCell>
        <mxCell id="j6VwmGJZ4XkVM8lMlkIX-67" style="edgeStyle=orthogonalEdgeStyle;rounded=0;orthogonalLoop=1;jettySize=auto;html=1;exitX=0.5;exitY=0;exitDx=0;exitDy=0;entryX=0;entryY=0.5;entryDx=0;entryDy=0;" edge="1" parent="1" source="j6VwmGJZ4XkVM8lMlkIX-63" target="j6VwmGJZ4XkVM8lMlkIX-2">
          <mxGeometry relative="1" as="geometry" />
        </mxCell>
        <mxCell id="j6VwmGJZ4XkVM8lMlkIX-63" value="" style="rhombus;whiteSpace=wrap;html=1;" vertex="1" parent="1">
          <mxGeometry y="382" width="80" height="80" as="geometry" />
        </mxCell>
        <mxCell id="j6VwmGJZ4XkVM8lMlkIX-65" style="edgeStyle=orthogonalEdgeStyle;rounded=0;orthogonalLoop=1;jettySize=auto;html=1;exitX=0.5;exitY=1;exitDx=0;exitDy=0;entryX=0.014;entryY=1.044;entryDx=0;entryDy=0;entryPerimeter=0;endArrow=none;endFill=0;" edge="1" parent="1" source="j6VwmGJZ4XkVM8lMlkIX-63" target="j6VwmGJZ4XkVM8lMlkIX-18">
          <mxGeometry relative="1" as="geometry" />
        </mxCell>
      </root>
    </mxGraphModel>
  </diagram>
</mxfile>
